Set in the year 1912 on Cape Cod, a lighthouse keeper who has disavowed any association with females, must deal with the appearance of two attractive women who move into a nearby cottage for the summer.

Genre:Comedy
Language:English  http://www.imdb.com/title/tt1156067/
Source:DvDScr.thanks buddy.

General
Complete name :The.Lightkeepers.DvDScr.XviD.Ac3.Feel-Free
Format : AVI
Format/Info : Audio Video Interleave
File size : 994 MiB
Duration : 1h 36mn
Overall bit rate : 1 438 Kbps
Video #0
Codec ID : XVID
Codec ID/Hint : XviD
Duration : 1h 36mn
Bit rate : 981 Kbps
Width : 720 pixels
Height : 384 pixels
Display aspect ratio : 1.875
Frame rate : 23.976 fps
Resolution : 24 bits
Colorimetry : 4:2:0
Scan type : Progressive
Bits/(Pixel*Frame) : 0.148
Stream size : 678 MiB (68%)
Writing library : XviD 1.2.1 (UTC 2008-12-04)
Audio #1
ID : 1
Format : AC-3
Format/Info : Audio Coding 3
Codec ID : 2000
Duration : 1h 36mn
Bit rate mode : Constant
Bit rate : 448 Kbps
Channel(s) : 6 channels
Channel positions : Front: L C R, Surround: L R, LFE
Sampling rate : 48.0 KHz
Stream size : 310 MiB (31%)
Alignment : Split accross interleaves
Interleave, duration : 42 ms (1.00 video frame)
Interleave, preload duration : 500 ms

